<?xml version="1.0" encoding="utf-8"?>
<!-- Generator: Adobe Illustrator 21.0.0, SVG Export Plug-In . SVG Version: 6.00 Build 0)  -->
<svg version="1.1" id="Ebene_1" xmlns="http://www.w3.org/2000/svg" xmlns:xlink="http://www.w3.org/1999/xlink" x="0px" y="0px"
	 viewBox="0 0 841.5 248.1" style="enable-background:new 0 0 841.5 248.1;" xml:space="preserve">
<style type="text/css">
	.st0{fill:#14304D;}
</style>
<g>
	<path class="st0" d="M821.4,57.6v132.3c0,23.7-8.8,35.7-26.3,35.7h-23.4V22.2h23.4C812.8,22.2,821.4,33.8,821.4,57.6 M795.9,2.9
		h-44.2v242.3h44.2c29.4,0,45.6-19.4,45.6-54.7V56.8C841.5,21,826.1,2.9,795.9,2.9"/>
	<path class="st0" d="M707.6,57.9v22c0,23.7-8.8,35.7-26.3,35.7h-20.5V57.9c0-17.4,4.1-38.2,23.4-38.2
		C703.5,19.7,707.6,40.5,707.6,57.9 M727.7,245.2V170c0-21.9-6.8-38.2-18.4-45.3c12.1-8.6,18.4-23.6,18.4-44V57.2
		c0-26.1-7.5-57.2-43.5-57.2c-19.8,0-43.5,9.9-43.5,57.2v188h20.1V135.4h23c19.6,0,23.8,18,23.8,33.2v76.7H727.7z"/>
	<path class="st0" d="M596.3,57.9v70h-47.5v-70c0-24.2,8.9-38.6,23.8-38.6C594,19.3,596.3,46.3,596.3,57.9 M572.5,0
		c-27.8,0-43.8,20.8-43.8,57.2v188h20.1v-97.9h47.5v97.9h20.1v-188C616.3,20.3,600.8,0,572.5,0"/>
	<path class="st0" d="M466.6,0c-19.7,0-43.1,9.4-43.1,54.3v139.5c0,44.9,23.4,54.3,43.1,54.3c19.7,0,43.1-9.4,43.1-54.3v-16.7h-20.1
		v16.7c0,30.7-12.3,34.6-23,34.6c-10.7,0-23-3.9-23-34.6V54.3c0-30.7,12.3-34.6,23-34.6c10.7,0,23,3.9,23,34.6V71h20.1V54.3
		C509.7,9.4,486.3,0,466.6,0"/>
	<path class="st0" d="M287.5,190.6V2.9h-20.1v188.4c0,35.8,15.4,53.9,45.6,53.9h24.3v-19.3h-23.6
		C296.1,225.9,287.5,214.3,287.5,190.6"/>
	<path class="st0" d="M415.1,225.9h-23.6c-17.7,0-26.3-11.6-26.3-35.3V2.9h-20.1v188.4c0,35.8,15.4,53.9,45.6,53.9h24.3V225.9z"/>
	<path class="st0" d="M201.1,57.6c0-23.8,8.6-35.3,26.3-35.3H251V2.9h-24.3c-30.3,0-45.6,18.2-45.6,53.9v133.7
		c0,35.3,16.2,54.7,45.6,54.7H251v-19.7h-23.6c-17.4,0-26.3-12-26.3-35.7v-60.3h50.6v-19.3h-50.6V57.6z"/>
	<path class="st0" d="M158.1,2.9H138v187.3c0,14.3-3.2,38.2-24.5,38.2c-18.1,0-24.5-19.4-24.5-37.5V2.9H69v188
		c0,18.1-6.4,37.5-24.5,37.5c-21.3,0-24.5-23.9-24.5-38.2V2.9H0v188c0,47.3,24.2,57.2,44.5,57.2c15.1,0,27.1-6.3,34.3-18
		c7,11.5,19.3,18,34.7,18c20.3,0,44.5-9.9,44.5-57.2V2.9z"/>
</g>
</svg>
